:SAMPLES-PER-SECOND 30
:FULLY-SPECIFIED
:DEGREES
441
root  -33.6365 33.3968 -13.8775 -165.201 44.2207 -174.182
RightUpLeg  -27.8558 -10.4541 0.42028
RightLeg  42.0001 -8.51488 -6.69739
RightFoot  -4.16429 0.0151295 1.03378
RightToes  -20.8611 -0.0863106 -0.183709
Spine  -2.11047 -0.649033 -0.178347
Spine1  -3.9305 -1.29457 0.507424
HEad  -44.9005 -11.8906 5.69361
LeftShoulder1  -1.94126e-019 -3.10601e-018 -2.51263e-017
LeftArm  -27.0061 41.8708 -74.1642
LeftForeArm  32.0685 -8.53765 -1.49636
LeftHand  -0.337111 -0.413175 6.8359
RightShoulder  -4.96962e-017 0 -2.36833e-017
RightArm  -30.9779 -42.7648 82.792
RightForeArm  55.887 16.4615 1.02406
RightHand  -0.707571 1.82703 -11.5359
LeftUpLeg  -7.77692 12.7849 3.46749
LeftLeg  26.7161 16.1663 6.74753
LeftFoot  -13.8422 -0.523679 -4.15056
LeftToes  -21.6295 1.87998e-006 4.79886e-008
442
root  -33.4232 33.4189 -14.395 -164.501 43.4196 -173.643
RightUpLeg  -30.356 -13.5551 4.08192
RightLeg  43.0757 -8.57249 -7.0044
RightFoot  -4.00306 0.0180458 0.978282
RightToes  -20.4994 -0.0864484 -0.180826
Spine  -1.85699 -1.13192 0.156091
Spine1  -3.62024 -2.38732 1.21533
HEad  -45.5953 -11.9412 5.54419
LeftShoulder1  -1.94126e-019 -3.10601e-018 -2.51263e-017
LeftArm  -24.9668 35.248 -72.4516
LeftForeArm  34.1974 -8.61128 -1.50679
LeftHand  -0.367299 -0.482578 7.36073
RightShoulder  -4.96962e-017 0 -2.36833e-017
RightArm  -31.0323 -39.6748 81.3451
RightForeArm  55.5845 17.2812 1.08555
RightHand  -0.959385 0.467698 -19.0054
LeftUpLeg  -6.78024 12.0001 3.67615
LeftLeg  25.3992 16.6578 6.50992
LeftFoot  -13.8298 -0.535175 -4.24911
LeftToes  -20.5038 1.87998e-006 4.79886e-008
443
root  -33.1193 33.4199 -14.9634 -164.485 42.5529 -173.625
RightUpLeg  -32.7049 -15.9699 7.18748
RightLeg  43.6103 -8.47837 -7.06126
RightFoot  -4.23637 0.0141005 0.994572
RightToes  -19.4296 -0.0872714 -0.181202
Spine  -1.49578 -1.49703 0.399361
Spine1  -3.01038 -3.18212 1.66995
HEad  -46.7052 -12.0003 5.66174
LeftShoulder1  -1.94126e-019 -3.10601e-018 -2.51263e-017
LeftArm  -23.4898 28.2135 -70.8546
LeftForeArm  35.9482 -9.59352 -1.68127
LeftHand  -0.397735 -0.491629 7.95324
RightShoulder  -4.96962e-017 0 -2.36833e-017
RightArm  -31.4251 -36.7832 80.3932
RightForeArm  55.7227 17.5213 1.11944
RightHand  -0.745099 -1.73615 -23.4306
LeftUpLeg  -5.17789 10.6378 3.59811
LeftLeg  23.8206 17.6055 6.3259
LeftFoot  -13.6537 -0.549358 -4.42478
LeftToes  -19.2807 1.87998e-006 4.79886e-008
444
root  -32.7243 33.3531 -15.5529 -164.258 41.7881 -173.215
RightUpLeg  -35.0447 -17.6846 10.2943
RightLeg  43.3504 -8.14639 -6.72859
RightFoot  -4.45892 0.0151512 0.999101
RightToes  -20.3806 -0.0883037 -0.18295
Spine  -1.24015 -1.5671 0.669614
Spine1  -2.51493 -3.28327 2.17021
HEad  -47.5934 -12.0857 5.92862
LeftShoulder1  -1.94126e-019 -3.10601e-018 -2.51263e-017
LeftArm  -21.4121 22.6438 -69.5035
LeftForeArm  35.8296 -16.7377 -3.01042
LeftHand  -0.405697 -0.170845 8.54985
RightShoulder  -4.96962e-017 0 -2.36833e-017
RightArm  -32.1203 -34.9133 79.6478
RightForeArm  53.7646 17.3807 1.16902
RightHand  -0.508052 -2.93295 -23.6344
LeftUpLeg  -3.72895 9.5952 3.9173
LeftLeg  23.0555 18.3841 6.32516
LeftFoot  -13.8955 -0.59351 -4.706
LeftToes  -18.3916 1.87998e-006 4.79886e-008
445
root  -32.2486 33.2629 -16.1801 -164.13 41.0634 -173.157
RightUpLeg  -37.4086 -19.1611 12.9497
RightLeg  42.2766 -7.8839 -6.2723
RightFoot  -5.11598 0.020864 1.07233
RightToes  -20.963 -0.0890695 -0.18452
Spine  -1.13038 -1.70685 0.886197
Spine1  -2.28419 -3.53733 2.57052
HEad  -48.0467 -12.2491 6.11079
LeftShoulder1  -1.94126e-019 -3.10601e-018 -2.51263e-017
LeftArm  -19.737 17.7694 -68.3024
LeftForeArm  34.4905 -23.2454 -4.22089
LeftHand  -0.415837 -0.166461 8.76886
RightShoulder  -4.96962e-017 0 -2.36833e-017
RightArm  -32.8771 -34.2732 79.3038
RightForeArm  52.3037 17.475 1.24288
RightHand  -0.485209 -2.80055 -21.4221
LeftUpLeg  -2.33159 8.56284 4.05383
LeftLeg  22.3761 19.0631 6.30337
LeftFoot  -13.6553 -0.594118 -4.79742
LeftToes  -19.0089 1.87998e-006 4.79886e-008
446
root  -31.6579 33.1706 -16.8407 -163.83 40.0358 -173.102
RightUpLeg  -39.5049 -20.4349 15.3345
RightLeg  40.2062 -7.67259 -5.66818
RightFoot  -5.78734 0.0264439 1.12354
RightToes  -20.7873 -0.0890926 -0.186105
Spine  -1.12089 -2.01064 1.19665
Spine1  -2.2468 -4.13675 3.17211
HEad  -48.5457 -12.137 6.07485
LeftShoulder1  -1.94126e-019 -3.10601e-018 -2.51263e-017
LeftArm  -17.1949 13.8033 -67.1997
LeftForeArm  30.8265 -29.6232 -5.30068
LeftHand  -0.40006 0.0135494 8.70402
RightShoulder  -4.96962e-017 0 -2.36833e-017
RightArm  -33.732 -34.4712 79.4134
RightForeArm  51.6771 17.4163 1.25724
RightHand  -0.545971 -2.13409 -19.2504
LeftUpLeg  -1.23664 8.0052 4.57844
LeftLeg  22.1301 18.8394 6.14527
LeftFoot  -12.7724 -0.513416 -4.42318
LeftToes  -22.3463 1.87998e-006 4.79886e-008
447
root  -30.9811 33.0301 -17.5289 -163.497 39.1555 -173.326
RightUpLeg  -41.4621 -20.899 16.9852
RightLeg  37.8832 -7.19213 -4.88113
RightFoot  -6.13316 0.0249466 1.0592
RightToes  -21.1387 -0.0878972 -0.185914
Spine  -1.23852 -2.36031 1.43063
Spine1  -2.45223 -4.871 3.64727
HEad  -49.2559 -11.7782 5.98524
LeftShoulder1  -1.94126e-019 -3.10601e-018 -2.51263e-017
LeftArm  -15.9686 11.0428 -66.1523
LeftForeArm  28.5211 -36.1526 -6.53665
LeftHand  -0.402601 0.0155624 8.76224
RightShoulder  -4.96962e-017 0 -2.36833e-017
RightArm  -34.5405 -35.4789 80.1967
RightForeArm  50.9839 17.1158 1.23471
RightHand  -0.541298 -1.95116 -18.0891
LeftUpLeg  -0.645813 7.54636 4.99768
LeftLeg  22.7914 18.4056 6.23989
LeftFoot  -11.6229 -0.417385 -3.93761
LeftToes  -27.2138 1.87998e-006 4.79886e-008
448
root  -30.1947 32.8325 -18.2996 -163.454 38.3594 -173.745
RightUpLeg  -42.707 -20.7422 17.643
RightLeg  35.6087 -5.99414 -3.73797
RightFoot  -6.52716 0.0178264 0.894792
RightToes  -20.4012 -0.0837063 -0.18004
Spine  -1.34807 -2.68772 1.60679
Spine1  -2.63818 -5.59906 4.04395
HEad  -50.1856 -11.4147 5.68182
LeftShoulder1  -1.94126e-019 -3.10601e-018 -2.51263e-017
LeftArm  -16.0414 9.37994 -65.3617
LeftForeArm  28.4553 -42.726 -8.49477
LeftHand  -0.407358 -0.0075907 8.82948
RightShoulder  -4.96962e-017 0 -2.36833e-017
RightArm  -36.2571 -36.7304 81.4847
RightForeArm  50.291 16.2118 1.19628
RightHand  -0.475793 -2.20169 -17.1071
LeftUpLeg  -0.207733 6.85745 5.30842
LeftLeg  24.5524 18.1306 6.76287
LeftFoot  -10.1596 -0.318483 -3.42006
LeftToes  -33.7355 1.87998e-006 4.79886e-008
449
root  -29.2853 32.5963 -19.1314 -163.053 37.8959 -173.788
RightUpLeg  -43.3919 -19.4359 17.8242
RightLeg  34.4891 -4.9287 -2.94688
RightFoot  -4.3728 -0.00384577 0.472118
RightToes  -10.2738 -0.0341211 -0.0944048
Spine  -1.63173 -2.92481 1.90934
Spine1  -3.18398 -6.18001 4.73176
HEad  -50.7998 -11.0061 5.01096
LeftShoulder1  -1.94126e-019 -3.10601e-018 -2.51263e-017
LeftArm  -15.8035 8.97365 -64.9421
LeftForeArm  29.2451 -49.1936 -10.8817
LeftHand  -0.437783 -0.0956717 9.34169
RightShoulder  -4.96962e-017 0 -2.36833e-017
RightArm  -37.8377 -38.362 82.5037
RightForeArm  50.6497 15.0449 1.23701
RightHand  -0.397131 -2.48115 -15.5772
LeftUpLeg  -0.425487 7.29429 6.24489
LeftLeg  27.8174 16.8912 7.41353
LeftFoot  -7.93451 -0.186396 -2.5256
LeftToes  -44.3434 1.87998e-006 4.79886e-008
450
root  -28.2252 32.2988 -20.0719 -163.196 37.7011 -174.095
RightUpLeg  -42.7809 -16.5871 16.1143
RightLeg  38.3282 -6.58753 -4.55157
RightFoot  -5.16743 0.00766795 0.754959
RightToes  -3.92618 -0.0110347 -0.0367858
Spine  -1.89343 -3.08454 2.12059
Spine1  -3.69836 -6.59267 5.22623
HEad  -50.9263 -10.5334 4.00914
LeftShoulder1  -1.94126e-019 -3.10601e-018 -2.51263e-017
LeftArm  -15.5437 9.58698 -64.8327
LeftForeArm  31.0275 -55.1668 -13.6993
LeftHand  -0.459951 -0.142463 9.73324
RightShoulder  -4.96962e-017 0 -2.36833e-017
RightArm  -39.8615 -39.8722 83.3319
RightForeArm  51.811 13.7184 1.35266
RightHand  -0.288286 -2.684 -12.0065
LeftUpLeg  -0.877084 8.43486 7.48206
LeftLeg  32.72 14.4256 7.86966
LeftFoot  -4.43576 -0.0538068 -1.2277
LeftToes  -57.8327 1.87998e-006 4.79886e-008
451
root  -27.1049 32.1085 -21.047 -163.605 37.6269 -174.104
RightUpLeg  -41.5056 -15.9339 15.4938
RightLeg  41.8783 -7.1354 -5.60656
RightFoot  -8.69548 0.06364 1.42794
RightToes  -1.50666 -0.00393616 -0.014205
Spine  -2.02464 -3.24881 2.39367
Spine1  -3.98834 -6.9964 5.82701
HEad  -50.4961 -9.8901 2.96734
LeftShoulder1  -1.94126e-019 -3.10601e-018 -2.51263e-017
LeftArm  -15.9129 10.8125 -65.6314
LeftForeArm  33.6223 -59.6893 -16.4275
LeftHand  -0.492511 -0.352784 10.054
RightShoulder  -4.96962e-017 0 -2.36833e-017
RightArm  -43.7468 -40.3576 83.4685
RightForeArm  57.1831 11.8273 1.49659
RightHand  -0.203507 -2.20036 -7.10116
LeftUpLeg  -2.19182 9.3247 9.08277
LeftLeg  39.5141 11.7694 8.37235
LeftFoot  2.35623 -0.00950432 0.623716
LeftToes  -71.6032 1.87998e-006 4.79886e-008
452
root  -26.0314 32.091 -22.0096 -164.307 38.0452 -174.152
RightUpLeg  -38.7634 -16.8966 15.1378
RightLeg  42.8212 -6.25 -5.09013
RightFoot  -11.619 0.111354 1.67911
RightToes  -1.92543 -0.00476517 -0.0181344
Spine  -1.96172 -3.1803 2.49948
Spine1  -3.89924 -6.9864 6.09347
HEad  -50.1575 -9.71884 2.46316
LeftShoulder1  -1.94126e-019 -3.10601e-018 -2.51263e-017
LeftArm  -16.0335 12.1219 -67.1768
LeftForeArm  36.42 -62.6932 -18.6328
LeftHand  -0.51065 -0.489688 10.1899
RightShoulder  -4.96962e-017 0 -2.36833e-017
RightArm  -46.2967 -40.379 83.1718
RightForeArm  66.8339 9.60511 1.51496
RightHand  -0.415857 2.03773 -6.68074
LeftUpLeg  -4.71218 9.74466 10.1294
LeftLeg  47.8355 9.42546 9.02593
LeftFoot  12.3375 -0.280437 2.75576
LeftToes  -71.3188 1.87998e-006 4.79886e-008
453
root  -25.0367 32.2204 -22.9605 -165.301 38.2619 -174.637
RightUpLeg  -35.4661 -18.6272 14.336
RightLeg  42.3573 -5.06507 -4.06932
RightFoot  -13.5012 0.118887 1.58029
RightToes  -3.15516 -0.00866915 -0.0296228
Spine  -1.79046 -2.99103 2.4747
Spine1  -3.5821 -6.64351 6.04548
HEad  -49.9884 -9.93472 2.51239
LeftShoulder1  -1.94126e-019 -3.10601e-018 -2.51263e-017
LeftArm  -15.6746 13.5345 -69.4728
LeftForeArm  37.9745 -64.1028 -19.8177
LeftHand  -0.523855 -0.592321 10.2799
RightShoulder  -4.96962e-017 0 -2.36833e-017
RightArm  -46.6675 -39.9933 82.8382
RightForeArm  70.5361 8.9691 1.46636
RightHand  -0.396431 3.2208 -5.58044
LeftUpLeg  -8.59259 9.18585 9.81718
LeftLeg  56.7613 8.90666 11.632
LeftFoot  22.2574 -1.05498 5.52083
LeftToes  -54.6134 1.87998e-006 4.79886e-008
